<svg xmlns="http://www.w3.org/2000/svg" xmlns:xlink="http://www.w3.org/1999/xlink" width="400" zoomAndPan="magnify" viewBox="0 0 300 299.999988" height="400" preserveAspectRatio="xMidYMid meet" version="1.0"><defs><clipPath id="2e3df35ba6"><path d="M 135.566406 105.75 L 276.894531 105.75 L 276.894531 195.75 L 135.566406 195.75 Z M 135.566406 105.75 " clip-rule="nonzero"/></clipPath><clipPath id="2f19f5e0df"><path d="M 206.171875 105.75 C 167.175781 105.75 135.566406 125.898438 135.566406 150.75 C 135.566406 175.601562 167.175781 195.75 206.171875 195.75 C 245.164062 195.75 276.777344 175.601562 276.777344 150.75 C 276.777344 125.898438 245.164062 105.75 206.171875 105.75 Z M 206.171875 105.75 " clip-rule="nonzero"/></clipPath><clipPath id="76e1c9a0e7"><path d="M 0.566406 0.75 L 141.894531 0.75 L 141.894531 90.75 L 0.566406 90.75 Z M 0.566406 0.75 " clip-rule="nonzero"/></clipPath><clipPath id="cce92a83d5"><path d="M 71.171875 0.75 C 32.175781 0.75 0.566406 20.898438 0.566406 45.75 C 0.566406 70.601562 32.175781 90.75 71.171875 90.75 C 110.164062 90.75 141.777344 70.601562 141.777344 45.75 C 141.777344 20.898438 110.164062 0.75 71.171875 0.75 Z M 71.171875 0.75 " clip-rule="nonzero"/></clipPath><clipPath id="91daf192ca"><rect x="0" width="142" y="0" height="91"/></clipPath><clipPath id="8f4e568d3a"><path d="M 21.453125 105.75 L 162.78125 105.75 L 162.78125 195.75 L 21.453125 195.75 Z M 21.453125 105.75 " clip-rule="nonzero"/></clipPath><clipPath id="9a562ef567"><path d="M 92.058594 105.75 C 53.066406 105.75 21.453125 125.898438 21.453125 150.75 C 21.453125 175.601562 53.066406 195.75 92.058594 195.75 C 131.054688 195.75 162.667969 175.601562 162.667969 150.75 C 162.667969 125.898438 131.054688 105.75 92.058594 105.75 Z M 92.058594 105.75 " clip-rule="nonzero"/></clipPath><clipPath id="3aae7b7dff"><path d="M 0.453125 0.75 L 141.71875 0.75 L 141.71875 90.75 L 0.453125 90.75 Z M 0.453125 0.75 " clip-rule="nonzero"/></clipPath><clipPath id="5e28af01cc"><path d="M 71.058594 0.75 C 32.066406 0.75 0.453125 20.898438 0.453125 45.75 C 0.453125 70.601562 32.066406 90.75 71.058594 90.75 C 110.054688 90.75 141.667969 70.601562 141.667969 45.75 C 141.667969 20.898438 110.054688 0.75 71.058594 0.75 Z M 71.058594 0.75 " clip-rule="nonzero"/></clipPath><clipPath id="d6773f72d1"><rect x="0" width="142" y="0" height="91"/></clipPath><clipPath id="bf6ed7ebf2"><path d="M 62.769531 118.9375 L 124.890625 118.9375 L 124.890625 181.0625 L 62.769531 181.0625 Z M 62.769531 118.9375 " clip-rule="nonzero"/></clipPath><clipPath id="0d7d5331ea"><path d="M 93.828125 118.9375 C 76.675781 118.9375 62.769531 132.84375 62.769531 150 C 62.769531 167.152344 76.675781 181.0625 93.828125 181.0625 C 110.984375 181.0625 124.890625 167.152344 124.890625 150 C 124.890625 132.84375 110.984375 118.9375 93.828125 118.9375 Z M 93.828125 118.9375 " clip-rule="nonzero"/></clipPath><clipPath id="bc0ef3ef48"><path d="M 0.769531 0.9375 L 62.890625 0.9375 L 62.890625 63.0625 L 0.769531 63.0625 Z M 0.769531 0.9375 " clip-rule="nonzero"/></clipPath><clipPath id="f4df24760c"><path d="M 31.828125 0.9375 C 14.675781 0.9375 0.769531 14.84375 0.769531 32 C 0.769531 49.152344 14.675781 63.0625 31.828125 63.0625 C 48.984375 63.0625 62.890625 49.152344 62.890625 32 C 62.890625 14.84375 48.984375 0.9375 31.828125 0.9375 Z M 31.828125 0.9375 " clip-rule="nonzero"/></clipPath><clipPath id="59e820279f"><rect x="0" width="63" y="0" height="64"/></clipPath><clipPath id="282d731cf0"><path d="M 136.449219 129.167969 L 163.550781 129.167969 L 163.550781 167.914062 L 136.449219 167.914062 Z M 136.449219 129.167969 " clip-rule="nonzero"/></clipPath><clipPath id="6b81aaa200"><path d="M 150 129.167969 C 142.515625 129.167969 136.449219 137.824219 136.449219 148.5 C 136.449219 159.175781 142.515625 167.832031 150 167.832031 C 157.484375 167.832031 163.550781 159.175781 163.550781 148.5 C 163.550781 137.824219 157.484375 129.167969 150 129.167969 Z M 150 129.167969 " clip-rule="nonzero"/></clipPath><clipPath id="835e5675f7"><path d="M 0.449219 0.167969 L 27.550781 0.167969 L 27.550781 38.914062 L 0.449219 38.914062 Z M 0.449219 0.167969 " clip-rule="nonzero"/></clipPath><clipPath id="ea03afcf6a"><path d="M 14 0.167969 C 6.515625 0.167969 0.449219 8.824219 0.449219 19.5 C 0.449219 30.175781 6.515625 38.832031 14 38.832031 C 21.484375 38.832031 27.550781 30.175781 27.550781 19.5 C 27.550781 8.824219 21.484375 0.167969 14 0.167969 Z M 14 0.167969 " clip-rule="nonzero"/></clipPath><clipPath id="fb40d199af"><rect x="0" width="28" y="0" height="39"/></clipPath><clipPath id="c2a59afcf5"><path d="M 15.648438 97 L 171.648438 97 L 171.648438 203 L 15.648438 203 Z M 15.648438 97 " clip-rule="nonzero"/></clipPath><clipPath id="9b3072b7a6"><path d="M 175.109375 118.9375 L 237.230469 118.9375 L 237.230469 181.0625 L 175.109375 181.0625 Z M 175.109375 118.9375 " clip-rule="nonzero"/></clipPath><clipPath id="a05cc82b72"><path d="M 206.171875 118.9375 C 189.015625 118.9375 175.109375 132.84375 175.109375 150 C 175.109375 167.152344 189.015625 181.0625 206.171875 181.0625 C 223.324219 181.0625 237.230469 167.152344 237.230469 150 C 237.230469 132.84375 223.324219 118.9375 206.171875 118.9375 Z M 206.171875 118.9375 " clip-rule="nonzero"/></clipPath><clipPath id="3bc69b7a2d"><path d="M 0.109375 0.9375 L 62.230469 0.9375 L 62.230469 63.0625 L 0.109375 63.0625 Z M 0.109375 0.9375 " clip-rule="nonzero"/></clipPath><clipPath id="09120d9772"><path d="M 31.171875 0.9375 C 14.015625 0.9375 0.109375 14.84375 0.109375 32 C 0.109375 49.152344 14.015625 63.0625 31.171875 63.0625 C 48.324219 63.0625 62.230469 49.152344 62.230469 32 C 62.230469 14.84375 48.324219 0.9375 31.171875 0.9375 Z M 31.171875 0.9375 " clip-rule="nonzero"/></clipPath><clipPath id="cdf40d1fa2"><rect x="0" width="63" y="0" height="64"/></clipPath><clipPath id="ded95b46b6"><path d="M 127.992188 97 L 283.992188 97 L 283.992188 203 L 127.992188 203 Z M 127.992188 97 " clip-rule="nonzero"/></clipPath><clipPath id="1984836583"><path d="M 72.074219 128.246094 L 115.585938 128.246094 L 115.585938 171.753906 L 72.074219 171.753906 Z M 72.074219 128.246094 " clip-rule="nonzero"/></clipPath><clipPath id="17199e1d37"><path d="M 93.828125 128.246094 C 81.8125 128.246094 72.074219 137.984375 72.074219 150 C 72.074219 162.015625 81.8125 171.753906 93.828125 171.753906 C 105.84375 171.753906 115.585938 162.015625 115.585938 150 C 115.585938 137.984375 105.84375 128.246094 93.828125 128.246094 Z M 93.828125 128.246094 " clip-rule="nonzero"/></clipPath><clipPath id="1a5ae64615"><path d="M 0.0742188 0.246094 L 43.585938 0.246094 L 43.585938 43.753906 L 0.0742188 43.753906 Z M 0.0742188 0.246094 " clip-rule="nonzero"/></clipPath><clipPath id="544837a194"><path d="M 21.828125 0.246094 C 9.8125 0.246094 0.0742188 9.984375 0.0742188 22 C 0.0742188 34.015625 9.8125 43.753906 21.828125 43.753906 C 33.84375 43.753906 43.585938 34.015625 43.585938 22 C 43.585938 9.984375 33.84375 0.246094 21.828125 0.246094 Z M 21.828125 0.246094 " clip-rule="nonzero"/></clipPath><clipPath id="c34f1aa9cc"><rect x="0" width="44" y="0" height="44"/></clipPath><clipPath id="0d3113ddf0"><path d="M 184.414062 128.246094 L 227.925781 128.246094 L 227.925781 171.753906 L 184.414062 171.753906 Z M 184.414062 128.246094 " clip-rule="nonzero"/></clipPath><clipPath id="a28ee98a20"><path d="M 206.171875 128.246094 C 194.15625 128.246094 184.414062 137.984375 184.414062 150 C 184.414062 162.015625 194.15625 171.753906 206.171875 171.753906 C 218.1875 171.753906 227.925781 162.015625 227.925781 150 C 227.925781 137.984375 218.1875 128.246094 206.171875 128.246094 Z M 206.171875 128.246094 " clip-rule="nonzero"/></clipPath><clipPath id="29f872e8ee"><path d="M 0.414062 0.246094 L 43.925781 0.246094 L 43.925781 43.753906 L 0.414062 43.753906 Z M 0.414062 0.246094 " clip-rule="nonzero"/></clipPath><clipPath id="3e95ce3aa9"><path d="M 22.171875 0.246094 C 10.15625 0.246094 0.414062 9.984375 0.414062 22 C 0.414062 34.015625 10.15625 43.753906 22.171875 43.753906 C 34.1875 43.753906 43.925781 34.015625 43.925781 22 C 43.925781 9.984375 34.1875 0.246094 22.171875 0.246094 Z M 22.171875 0.246094 " clip-rule="nonzero"/></clipPath><clipPath id="e3632f6e5f"><rect x="0" width="44" y="0" height="44"/></clipPath><clipPath id="a39487ab83"><path d="M 92.59375 139.253906 L 115.585938 139.253906 L 115.585938 162.246094 L 92.59375 162.246094 Z M 92.59375 139.253906 " clip-rule="nonzero"/></clipPath><clipPath id="605b8bd5c8"><path d="M 104.089844 139.253906 C 97.738281 139.253906 92.59375 144.402344 92.59375 150.75 C 92.59375 157.097656 97.738281 162.246094 104.089844 162.246094 C 110.4375 162.246094 115.585938 157.097656 115.585938 150.75 C 115.585938 144.402344 110.4375 139.253906 104.089844 139.253906 Z M 104.089844 139.253906 " clip-rule="nonzero"/></clipPath><clipPath id="efbc8d18c8"><path d="M 0.59375 0.253906 L 23.585938 0.253906 L 23.585938 23.246094 L 0.59375 23.246094 Z M 0.59375 0.253906 " clip-rule="nonzero"/></clipPath><clipPath id="5d9ebff512"><path d="M 12.089844 0.253906 C 5.738281 0.253906 0.59375 5.402344 0.59375 11.75 C 0.59375 18.097656 5.738281 23.246094 12.089844 23.246094 C 18.4375 23.246094 23.585938 18.097656 23.585938 11.75 C 23.585938 5.402344 18.4375 0.253906 12.089844 0.253906 Z M 12.089844 0.253906 " clip-rule="nonzero"/></clipPath><clipPath id="77a7f8aecc"><rect x="0" width="24" y="0" height="24"/></clipPath><clipPath id="c0a46cd777"><path d="M 204.933594 138.503906 L 227.925781 138.503906 L 227.925781 161.496094 L 204.933594 161.496094 Z M 204.933594 138.503906 " clip-rule="nonzero"/></clipPath><clipPath id="92cd6d9268"><path d="M 216.429688 138.503906 C 210.082031 138.503906 204.933594 143.652344 204.933594 150 C 204.933594 156.347656 210.082031 161.496094 216.429688 161.496094 C 222.78125 161.496094 227.925781 156.347656 227.925781 150 C 227.925781 143.652344 222.78125 138.503906 216.429688 138.503906 Z M 216.429688 138.503906 " clip-rule="nonzero"/></clipPath><clipPath id="a33d75d668"><path d="M 0.933594 0.503906 L 23.925781 0.503906 L 23.925781 23.496094 L 0.933594 23.496094 Z M 0.933594 0.503906 " clip-rule="nonzero"/></clipPath><clipPath id="f37303bca6"><path d="M 12.429688 0.503906 C 6.082031 0.503906 0.933594 5.652344 0.933594 12 C 0.933594 18.347656 6.082031 23.496094 12.429688 23.496094 C 18.78125 23.496094 23.925781 18.347656 23.925781 12 C 23.925781 5.652344 18.78125 0.503906 12.429688 0.503906 Z M 12.429688 0.503906 " clip-rule="nonzero"/></clipPath><clipPath id="b4f0882b1b"><rect x="0" width="24" y="0" height="24"/></clipPath></defs><rect x="-30" width="360" fill="#ffffff" y="-29.999999" height="359.999986" fill-opacity="1"/><rect x="-30" width="360" fill="#ffffff" y="-29.999999" height="359.999986" fill-opacity="1"/><g clip-path="url(#2e3df35ba6)"><g clip-path="url(#2f19f5e0df)"><g transform="matrix(1, 0, 0, 1, 135, 105)"><g clip-path="url(#91daf192ca)"><g clip-path="url(#76e1c9a0e7)"><g clip-path="url(#cce92a83d5)"><path fill="#acc3ff" d="M 0.566406 0.75 L 141.894531 0.75 L 141.894531 90.75 L 0.566406 90.75 Z M 0.566406 0.75 " fill-opacity="1" fill-rule="nonzero"/></g></g></g></g></g></g><g clip-path="url(#8f4e568d3a)"><g clip-path="url(#9a562ef567)"><g transform="matrix(1, 0, 0, 1, 21, 105)"><g clip-path="url(#d6773f72d1)"><g clip-path="url(#3aae7b7dff)"><g clip-path="url(#5e28af01cc)"><path fill="#acc3ff" d="M 0.453125 0.75 L 141.78125 0.75 L 141.78125 90.75 L 0.453125 90.75 Z M 0.453125 0.75 " fill-opacity="1" fill-rule="nonzero"/></g></g></g></g></g></g><g clip-path="url(#bf6ed7ebf2)"><g clip-path="url(#0d7d5331ea)"><g transform="matrix(1, 0, 0, 1, 62, 118)"><g clip-path="url(#59e820279f)"><g clip-path="url(#bc0ef3ef48)"><g clip-path="url(#f4df24760c)"><path fill="#ffffff" d="M 0.769531 0.9375 L 62.890625 0.9375 L 62.890625 63.0625 L 0.769531 63.0625 Z M 0.769531 0.9375 " fill-opacity="1" fill-rule="nonzero"/></g></g></g></g></g></g><g clip-path="url(#282d731cf0)"><g clip-path="url(#6b81aaa200)"><g transform="matrix(1, 0, 0, 1, 136, 129)"><g clip-path="url(#fb40d199af)"><g clip-path="url(#835e5675f7)"><g clip-path="url(#ea03afcf6a)"><path fill="#fdcf60" d="M 0.449219 0.167969 L 27.550781 0.167969 L 27.550781 38.808594 L 0.449219 38.808594 Z M 0.449219 0.167969 " fill-opacity="1" fill-rule="nonzero"/></g></g></g></g></g></g><g clip-path="url(#c2a59afcf5)"><path fill="#000000" d="M 93.648438 202.609375 C 42.5 202.609375 17.160156 154.109375 16.101562 152.046875 C 15.800781 151.453125 15.648438 150.824219 15.648438 150.160156 C 15.648438 149.492188 15.800781 148.863281 16.101562 148.273438 C 17.160156 146.207031 42.5 97.746094 93.648438 97.746094 C 144.800781 97.746094 170.148438 146.207031 171.199219 148.273438 C 171.5 148.863281 171.652344 149.492188 171.652344 150.160156 C 171.652344 150.824219 171.5 151.453125 171.199219 152.046875 C 170.148438 154.109375 144.808594 202.609375 93.648438 202.609375 Z M 24.46875 150.152344 C 29.609375 158.847656 52.992188 194.355469 93.648438 194.355469 C 134.308594 194.355469 157.742188 158.847656 162.832031 150.203125 C 157.691406 141.507812 134.308594 106.003906 93.648438 106.003906 C 52.992188 106.003906 29.558594 141.507812 24.46875 150.152344 Z M 93.648438 186.3125 C 92.472656 186.3125 91.296875 186.253906 90.125 186.136719 C 88.953125 186.023438 87.792969 185.847656 86.636719 185.617188 C 85.484375 185.386719 84.34375 185.097656 83.214844 184.753906 C 82.089844 184.410156 80.980469 184.011719 79.894531 183.558594 C 78.804688 183.105469 77.742188 182.601562 76.707031 182.042969 C 75.667969 181.484375 74.660156 180.878906 73.679688 180.21875 C 72.699219 179.5625 71.757812 178.855469 70.847656 178.105469 C 69.9375 177.355469 69.066406 176.5625 68.234375 175.722656 C 67.398438 174.886719 66.609375 174.011719 65.863281 173.09375 C 65.117188 172.179688 64.417969 171.230469 63.761719 170.246094 C 63.109375 169.261719 62.503906 168.246094 61.949219 167.203125 C 61.394531 166.160156 60.890625 165.089844 60.441406 163.996094 C 59.988281 162.902344 59.59375 161.789062 59.253906 160.65625 C 58.910156 159.523438 58.625 158.375 58.394531 157.214844 C 58.164062 156.054688 57.992188 154.882812 57.878906 153.707031 C 57.761719 152.527344 57.703125 151.347656 57.703125 150.164062 C 57.703125 148.980469 57.761719 147.796875 57.878906 146.621094 C 57.992188 145.441406 58.164062 144.269531 58.394531 143.109375 C 58.625 141.949219 58.910156 140.800781 59.253906 139.667969 C 59.59375 138.535156 59.988281 137.421875 60.441406 136.328125 C 60.890625 135.234375 61.394531 134.167969 61.949219 133.121094 C 62.503906 132.078125 63.109375 131.0625 63.761719 130.078125 C 64.417969 129.09375 65.117188 128.144531 65.863281 127.230469 C 66.609375 126.316406 67.398438 125.4375 68.234375 124.601562 C 69.066406 123.765625 69.9375 122.96875 70.847656 122.21875 C 71.757812 121.46875 72.699219 120.761719 73.679688 120.105469 C 74.660156 119.449219 75.667969 118.839844 76.707031 118.28125 C 77.742188 117.722656 78.804688 117.21875 79.894531 116.765625 C 80.980469 116.3125 82.089844 115.914062 83.214844 115.570312 C 84.34375 115.226562 85.484375 114.9375 86.636719 114.707031 C 87.792969 114.476562 88.953125 114.304688 90.125 114.1875 C 91.296875 114.070312 92.472656 114.011719 93.648438 114.011719 C 94.828125 114.011719 96 114.070312 97.171875 114.1875 C 98.34375 114.304688 99.507812 114.476562 100.664062 114.707031 C 101.816406 114.9375 102.957031 115.226562 104.085938 115.570312 C 105.210938 115.914062 106.316406 116.3125 107.40625 116.765625 C 108.492188 117.21875 109.554688 117.722656 110.59375 118.28125 C 111.632812 118.839844 112.640625 119.449219 113.621094 120.105469 C 114.597656 120.761719 115.542969 121.46875 116.453125 122.21875 C 117.363281 122.96875 118.234375 123.765625 119.066406 124.601562 C 119.898438 125.4375 120.6875 126.316406 121.4375 127.230469 C 122.183594 128.144531 122.882812 129.09375 123.539062 130.078125 C 124.191406 131.0625 124.796875 132.078125 125.351562 133.121094 C 125.90625 134.167969 126.410156 135.234375 126.859375 136.328125 C 127.308594 137.421875 127.707031 138.535156 128.046875 139.667969 C 128.390625 140.800781 128.675781 141.949219 128.90625 143.109375 C 129.132812 144.269531 129.308594 145.441406 129.421875 146.621094 C 129.539062 147.796875 129.59375 148.980469 129.59375 150.164062 C 129.59375 151.347656 129.535156 152.527344 129.417969 153.703125 C 129.300781 154.882812 129.128906 156.050781 128.898438 157.210938 C 128.667969 158.371094 128.382812 159.519531 128.039062 160.652344 C 127.695312 161.785156 127.300781 162.898438 126.847656 163.988281 C 126.398438 165.082031 125.894531 166.152344 125.339844 167.195312 C 124.785156 168.238281 124.179688 169.253906 123.523438 170.234375 C 122.871094 171.21875 122.171875 172.167969 121.421875 173.085938 C 120.675781 174 119.886719 174.875 119.054688 175.710938 C 118.222656 176.546875 117.351562 177.34375 116.441406 178.09375 C 115.53125 178.84375 114.589844 179.550781 113.609375 180.207031 C 112.632812 180.863281 111.625 181.472656 110.585938 182.03125 C 109.546875 182.589844 108.488281 183.09375 107.398438 183.550781 C 106.3125 184.003906 105.207031 184.402344 104.078125 184.746094 C 102.953125 185.089844 101.8125 185.378906 100.660156 185.609375 C 99.503906 185.84375 98.34375 186.015625 97.171875 186.132812 C 96 186.25 94.828125 186.308594 93.648438 186.3125 Z M 93.648438 122.269531 C 92.742188 122.269531 91.835938 122.316406 90.929688 122.40625 C 90.027344 122.496094 89.128906 122.628906 88.238281 122.804688 C 87.347656 122.984375 86.46875 123.207031 85.597656 123.472656 C 84.730469 123.738281 83.875 124.042969 83.035156 124.394531 C 82.195312 124.742188 81.375 125.132812 80.574219 125.5625 C 79.773438 125.996094 78.996094 126.464844 78.242188 126.972656 C 77.484375 127.480469 76.757812 128.023438 76.054688 128.601562 C 75.351562 129.179688 74.679688 129.792969 74.039062 130.441406 C 73.394531 131.085938 72.785156 131.761719 72.210938 132.46875 C 71.632812 133.175781 71.09375 133.90625 70.589844 134.667969 C 70.085938 135.425781 69.617188 136.207031 69.191406 137.015625 C 68.761719 137.820312 68.375 138.644531 68.027344 139.488281 C 67.679688 140.332031 67.371094 141.191406 67.109375 142.066406 C 66.84375 142.941406 66.625 143.824219 66.449219 144.722656 C 66.269531 145.617188 66.136719 146.519531 66.046875 147.429688 C 65.960938 148.335938 65.914062 149.25 65.914062 150.164062 C 65.914062 151.074219 65.960938 151.988281 66.046875 152.894531 C 66.136719 153.804688 66.269531 154.707031 66.449219 155.605469 C 66.625 156.5 66.84375 157.386719 67.109375 158.257812 C 67.371094 159.132812 67.679688 159.992188 68.027344 160.835938 C 68.375 161.679688 68.761719 162.503906 69.191406 163.3125 C 69.617188 164.117188 70.085938 164.898438 70.589844 165.660156 C 71.09375 166.417969 71.632812 167.152344 72.210938 167.855469 C 72.785156 168.5625 73.394531 169.238281 74.039062 169.886719 C 74.679688 170.53125 75.351562 171.144531 76.054688 171.722656 C 76.757812 172.304688 77.484375 172.847656 78.242188 173.355469 C 78.996094 173.863281 79.773438 174.332031 80.574219 174.761719 C 81.375 175.191406 82.195312 175.582031 83.035156 175.929688 C 83.875 176.28125 84.730469 176.589844 85.597656 176.855469 C 86.46875 177.117188 87.347656 177.339844 88.238281 177.519531 C 89.128906 177.695312 90.027344 177.832031 90.929688 177.921875 C 91.835938 178.011719 92.742188 178.054688 93.648438 178.054688 C 94.558594 178.054688 95.464844 178.011719 96.367188 177.921875 C 97.273438 177.832031 98.167969 177.695312 99.0625 177.519531 C 99.953125 177.339844 100.832031 177.117188 101.699219 176.855469 C 102.570312 176.589844 103.425781 176.28125 104.265625 175.929688 C 105.101562 175.582031 105.921875 175.191406 106.722656 174.761719 C 107.523438 174.332031 108.304688 173.863281 109.058594 173.355469 C 109.8125 172.847656 110.542969 172.304688 111.246094 171.722656 C 111.945312 171.144531 112.621094 170.53125 113.261719 169.886719 C 113.902344 169.238281 114.511719 168.5625 115.089844 167.855469 C 115.664062 167.152344 116.207031 166.417969 116.710938 165.660156 C 117.214844 164.898438 117.683594 164.117188 118.109375 163.3125 C 118.539062 162.503906 118.925781 161.679688 119.273438 160.835938 C 119.621094 159.992188 119.925781 159.132812 120.191406 158.257812 C 120.453125 157.386719 120.675781 156.5 120.851562 155.605469 C 121.03125 154.707031 121.164062 153.804688 121.25 152.894531 C 121.339844 151.988281 121.386719 151.074219 121.386719 150.164062 C 121.382812 149.25 121.339844 148.339844 121.25 147.429688 C 121.160156 146.519531 121.027344 145.617188 120.847656 144.722656 C 120.671875 143.828125 120.449219 142.941406 120.183594 142.070312 C 119.921875 141.195312 119.613281 140.335938 119.265625 139.492188 C 118.917969 138.648438 118.53125 137.824219 118.101562 137.019531 C 117.675781 136.214844 117.207031 135.429688 116.703125 134.671875 C 116.199219 133.914062 115.65625 133.179688 115.082031 132.472656 C 114.503906 131.769531 113.898438 131.09375 113.253906 130.445312 C 112.613281 129.800781 111.941406 129.1875 111.238281 128.609375 C 110.535156 128.03125 109.808594 127.484375 109.054688 126.980469 C 108.296875 126.472656 107.519531 126 106.71875 125.570312 C 105.917969 125.140625 105.097656 124.75 104.261719 124.398438 C 103.421875 124.050781 102.566406 123.742188 101.699219 123.476562 C 100.828125 123.210938 99.949219 122.988281 99.058594 122.808594 C 98.167969 122.632812 97.269531 122.496094 96.367188 122.40625 C 95.464844 122.316406 94.558594 122.269531 93.648438 122.269531 Z M 93.648438 122.269531 " fill-opacity="1" fill-rule="nonzero"/></g><g clip-path="url(#9b3072b7a6)"><g clip-path="url(#a05cc82b72)"><g transform="matrix(1, 0, 0, 1, 175, 118)"><g clip-path="url(#cdf40d1fa2)"><g clip-path="url(#3bc69b7a2d)"><g clip-path="url(#09120d9772)"><path fill="#ffffff" d="M 0.109375 0.9375 L 62.230469 0.9375 L 62.230469 63.0625 L 0.109375 63.0625 Z M 0.109375 0.9375 " fill-opacity="1" fill-rule="nonzero"/></g></g></g></g></g></g><g clip-path="url(#ded95b46b6)"><path fill="#000000" d="M 205.992188 202.609375 C 154.839844 202.609375 129.503906 154.109375 128.445312 152.046875 C 128.140625 151.453125 127.988281 150.824219 127.988281 150.160156 C 127.988281 149.492188 128.140625 148.863281 128.445312 148.273438 C 129.503906 146.207031 154.839844 97.746094 205.992188 97.746094 C 257.144531 97.746094 282.488281 146.207031 283.539062 148.273438 C 283.84375 148.863281 283.996094 149.492188 283.996094 150.160156 C 283.996094 150.824219 283.84375 151.453125 283.539062 152.046875 C 282.488281 154.109375 257.152344 202.609375 205.992188 202.609375 Z M 136.808594 150.152344 C 141.949219 158.847656 165.332031 194.355469 205.992188 194.355469 C 246.652344 194.355469 270.082031 158.847656 275.175781 150.203125 C 270.035156 141.507812 246.652344 106.003906 205.992188 106.003906 C 165.332031 106.003906 141.902344 141.507812 136.808594 150.152344 Z M 205.992188 186.3125 C 204.816406 186.3125 203.640625 186.253906 202.46875 186.136719 C 201.296875 186.023438 200.132812 185.847656 198.980469 185.617188 C 197.824219 185.386719 196.683594 185.097656 195.558594 184.753906 C 194.429688 184.410156 193.324219 184.011719 192.238281 183.558594 C 191.148438 183.105469 190.085938 182.601562 189.046875 182.042969 C 188.007812 181.484375 187 180.878906 186.023438 180.21875 C 185.042969 179.5625 184.097656 178.855469 183.1875 178.105469 C 182.277344 177.355469 181.40625 176.5625 180.574219 175.722656 C 179.742188 174.886719 178.953125 174.011719 178.207031 173.09375 C 177.457031 172.179688 176.757812 171.230469 176.105469 170.246094 C 175.449219 169.261719 174.847656 168.246094 174.289062 167.203125 C 173.734375 166.160156 173.234375 165.089844 172.78125 163.996094 C 172.332031 162.902344 171.9375 161.789062 171.59375 160.65625 C 171.253906 159.523438 170.96875 158.375 170.738281 157.214844 C 170.507812 156.054688 170.335938 154.882812 170.21875 153.707031 C 170.105469 152.527344 170.046875 151.347656 170.046875 150.164062 C 170.046875 148.980469 170.105469 147.796875 170.21875 146.621094 C 170.335938 145.441406 170.507812 144.269531 170.738281 143.109375 C 170.96875 141.949219 171.253906 140.800781 171.59375 139.667969 C 171.9375 138.535156 172.332031 137.421875 172.78125 136.328125 C 173.234375 135.234375 173.734375 134.167969 174.289062 133.121094 C 174.847656 132.078125 175.449219 131.0625 176.105469 130.078125 C 176.757812 129.09375 177.457031 128.144531 178.207031 127.230469 C 178.953125 126.316406 179.742188 125.4375 180.574219 124.601562 C 181.40625 123.765625 182.277344 122.96875 183.1875 122.21875 C 184.097656 121.46875 185.042969 120.761719 186.023438 120.105469 C 187 119.449219 188.007812 118.839844 189.046875 118.28125 C 190.085938 117.722656 191.148438 117.21875 192.238281 116.765625 C 193.324219 116.3125 194.429688 115.914062 195.558594 115.570312 C 196.683594 115.226562 197.824219 114.9375 198.980469 114.707031 C 200.132812 114.476562 201.296875 114.304688 202.46875 114.1875 C 203.640625 114.070312 204.816406 114.011719 205.992188 114.011719 C 207.167969 114.011719 208.34375 114.070312 209.515625 114.1875 C 210.6875 114.304688 211.851562 114.476562 213.003906 114.707031 C 214.160156 114.9375 215.300781 115.226562 216.425781 115.570312 C 217.554688 115.914062 218.660156 116.3125 219.746094 116.765625 C 220.835938 117.21875 221.898438 117.722656 222.9375 118.28125 C 223.976562 118.839844 224.984375 119.449219 225.960938 120.105469 C 226.941406 120.761719 227.886719 121.46875 228.796875 122.21875 C 229.707031 122.96875 230.578125 123.765625 231.410156 124.601562 C 232.242188 125.4375 233.03125 126.316406 233.777344 127.230469 C 234.527344 128.144531 235.226562 129.09375 235.878906 130.078125 C 236.535156 131.0625 237.136719 132.078125 237.695312 133.121094 C 238.25 134.167969 238.75 135.234375 239.203125 136.328125 C 239.652344 137.421875 240.046875 138.535156 240.390625 139.667969 C 240.730469 140.800781 241.015625 141.949219 241.246094 143.109375 C 241.476562 144.269531 241.648438 145.441406 241.765625 146.621094 C 241.878906 147.796875 241.9375 148.980469 241.9375 150.164062 C 241.9375 151.347656 241.878906 152.527344 241.761719 153.703125 C 241.644531 154.882812 241.472656 156.050781 241.242188 157.210938 C 241.011719 158.371094 240.722656 159.519531 240.382812 160.652344 C 240.039062 161.785156 239.640625 162.898438 239.191406 163.988281 C 238.738281 165.082031 238.238281 166.152344 237.679688 167.195312 C 237.125 168.238281 236.519531 169.253906 235.867188 170.234375 C 235.214844 171.21875 234.511719 172.167969 233.765625 173.085938 C 233.019531 174 232.230469 174.875 231.398438 175.710938 C 230.566406 176.546875 229.695312 177.34375 228.785156 178.09375 C 227.875 178.84375 226.929688 179.550781 225.953125 180.207031 C 224.972656 180.863281 223.964844 181.472656 222.929688 182.03125 C 221.890625 182.589844 220.828125 183.09375 219.742188 183.550781 C 218.65625 184.003906 217.546875 184.402344 216.421875 184.746094 C 215.296875 185.089844 214.15625 185.378906 213.003906 185.609375 C 211.847656 185.84375 210.683594 186.015625 209.515625 186.132812 C 208.34375 186.25 207.167969 186.308594 205.992188 186.3125 Z M 205.992188 122.269531 C 205.082031 122.269531 204.175781 122.316406 203.273438 122.40625 C 202.371094 122.496094 201.472656 122.628906 200.582031 122.804688 C 199.691406 122.984375 198.808594 123.207031 197.941406 123.472656 C 197.070312 123.738281 196.21875 124.042969 195.378906 124.394531 C 194.539062 124.742188 193.71875 125.132812 192.917969 125.5625 C 192.117188 125.996094 191.339844 126.464844 190.582031 126.972656 C 189.828125 127.480469 189.097656 128.023438 188.398438 128.601562 C 187.695312 129.179688 187.023438 129.792969 186.378906 130.441406 C 185.738281 131.085938 185.128906 131.761719 184.550781 132.46875 C 183.976562 133.175781 183.4375 133.90625 182.929688 134.667969 C 182.425781 135.425781 181.960938 136.207031 181.53125 137.015625 C 181.105469 137.820312 180.714844 138.644531 180.367188 139.488281 C 180.019531 140.332031 179.714844 141.191406 179.453125 142.066406 C 179.1875 142.941406 178.96875 143.824219 178.789062 144.722656 C 178.613281 145.617188 178.480469 146.519531 178.390625 147.429688 C 178.300781 148.335938 178.257812 149.25 178.257812 150.164062 C 178.257812 151.074219 178.300781 151.988281 178.390625 152.894531 C 178.480469 153.804688 178.613281 154.707031 178.789062 155.605469 C 178.96875 156.5 179.1875 157.386719 179.453125 158.257812 C 179.714844 159.132812 180.019531 159.992188 180.367188 160.835938 C 180.714844 161.679688 181.105469 162.503906 181.53125 163.3125 C 181.960938 164.117188 182.425781 164.898438 182.929688 165.660156 C 183.4375 166.417969 183.976562 167.152344 184.550781 167.855469 C 185.128906 168.5625 185.738281 169.238281 186.378906 169.886719 C 187.023438 170.53125 187.695312 171.144531 188.398438 171.722656 C 189.097656 172.304688 189.828125 172.847656 190.582031 173.355469 C 191.339844 173.863281 192.117188 174.332031 192.917969 174.761719 C 193.71875 175.191406 194.539062 175.582031 195.378906 175.929688 C 196.21875 176.28125 197.070312 176.589844 197.941406 176.855469 C 198.808594 177.117188 199.691406 177.339844 200.582031 177.519531 C 201.472656 177.695312 202.371094 177.832031 203.273438 177.921875 C 204.175781 178.011719 205.082031 178.054688 205.992188 178.054688 C 206.902344 178.054688 207.808594 178.011719 208.710938 177.921875 C 209.613281 177.832031 210.511719 177.695312 211.402344 177.519531 C 212.292969 177.339844 213.175781 177.117188 214.042969 176.855469 C 214.914062 176.589844 215.765625 176.28125 216.605469 175.929688 C 217.445312 175.582031 218.265625 175.191406 219.066406 174.761719 C 219.867188 174.332031 220.644531 173.863281 221.402344 173.355469 C 222.15625 172.847656 222.886719 172.304688 223.585938 171.722656 C 224.289062 171.144531 224.960938 170.53125 225.605469 169.886719 C 226.246094 169.238281 226.855469 168.5625 227.433594 167.855469 C 228.007812 167.152344 228.546875 166.417969 229.054688 165.660156 C 229.558594 164.898438 230.023438 164.117188 230.453125 163.3125 C 230.878906 162.503906 231.269531 161.679688 231.617188 160.835938 C 231.964844 159.992188 232.269531 159.132812 232.53125 158.257812 C 232.796875 157.386719 233.015625 156.5 233.195312 155.605469 C 233.371094 154.707031 233.503906 153.804688 233.59375 152.894531 C 233.683594 151.988281 233.726562 151.074219 233.726562 150.164062 C 233.726562 149.25 233.679688 148.339844 233.589844 147.429688 C 233.5 146.519531 233.367188 145.617188 233.191406 144.722656 C 233.011719 143.828125 232.792969 142.941406 232.527344 142.070312 C 232.261719 141.195312 231.957031 140.335938 231.609375 139.492188 C 231.261719 138.648438 230.875 137.824219 230.445312 137.019531 C 230.015625 136.214844 229.550781 135.429688 229.046875 134.671875 C 228.539062 133.914062 228 133.179688 227.425781 132.472656 C 226.847656 131.769531 226.238281 131.09375 225.597656 130.445312 C 224.953125 129.800781 224.28125 129.1875 223.582031 128.609375 C 222.878906 128.03125 222.148438 127.484375 221.394531 126.980469 C 220.640625 126.472656 219.863281 126 219.0625 125.570312 C 218.261719 125.140625 217.441406 124.75 216.601562 124.398438 C 215.761719 124.050781 214.910156 123.742188 214.039062 123.476562 C 213.171875 123.210938 212.292969 122.988281 211.402344 122.808594 C 210.511719 122.632812 209.613281 122.496094 208.710938 122.40625 C 207.804688 122.316406 206.898438 122.269531 205.992188 122.269531 Z M 205.992188 122.269531 " fill-opacity="1" fill-rule="nonzero"/></g><g clip-path="url(#1984836583)"><g clip-path="url(#17199e1d37)"><g transform="matrix(1, 0, 0, 1, 72, 128)"><g clip-path="url(#c34f1aa9cc)"><g clip-path="url(#1a5ae64615)"><g clip-path="url(#544837a194)"><path fill="#000000" d="M 0.0742188 0.246094 L 43.585938 0.246094 L 43.585938 43.753906 L 0.0742188 43.753906 Z M 0.0742188 0.246094 " fill-opacity="1" fill-rule="nonzero"/></g></g></g></g></g></g><g clip-path="url(#0d3113ddf0)"><g clip-path="url(#a28ee98a20)"><g transform="matrix(1, 0, 0, 1, 184, 128)"><g clip-path="url(#e3632f6e5f)"><g clip-path="url(#29f872e8ee)"><g clip-path="url(#3e95ce3aa9)"><path fill="#000000" d="M 0.414062 0.246094 L 43.925781 0.246094 L 43.925781 43.753906 L 0.414062 43.753906 Z M 0.414062 0.246094 " fill-opacity="1" fill-rule="nonzero"/></g></g></g></g></g></g><g clip-path="url(#a39487ab83)"><g clip-path="url(#605b8bd5c8)"><g transform="matrix(1, 0, 0, 1, 92, 139)"><g clip-path="url(#77a7f8aecc)"><g clip-path="url(#efbc8d18c8)"><g clip-path="url(#5d9ebff512)"><path fill="#ffffff" d="M 0.59375 0.253906 L 23.585938 0.253906 L 23.585938 23.246094 L 0.59375 23.246094 Z M 0.59375 0.253906 " fill-opacity="1" fill-rule="nonzero"/></g></g></g></g></g></g><g clip-path="url(#c0a46cd777)"><g clip-path="url(#92cd6d9268)"><g transform="matrix(1, 0, 0, 1, 204, 138)"><g clip-path="url(#b4f0882b1b)"><g clip-path="url(#a33d75d668)"><g clip-path="url(#f37303bca6)"><path fill="#ffffff" d="M 0.933594 0.503906 L 23.925781 0.503906 L 23.925781 23.496094 L 0.933594 23.496094 Z M 0.933594 0.503906 " fill-opacity="1" fill-rule="nonzero"/></g></g></g></g></g></g></svg>